<?xml version="1.0" encoding="UTF-8"?>
<svg width="10em" height="10em" version="1.1" viewBox="0 0 3779.5 3779.5" xmlns="http://www.w3.org/2000/svg">
 <path d="m2316 936.73c163.53 72.747 267.73 295.27 312.64 667.53 8.0934 128.31 61.067 252.08 120.6 253.51 35 0.8267 72.96-34.213 103.63-152.6 8.88-34.307 18.6-69.307 35.04-101.4 42.173-82.387 171.15-229.59 182.41-261.63 20.867-59.253 6.48-115.63-23.16-165.15-21.933-36.68-52.24-69.613-82.76-97.187-136.27-123.15-326.96-202.63-578.2-238.41-36.813-5.24-124.37-5.0133-145.56 28-29.253 45.6 49.08 55.653 75.36 67.333zm-64.147 500.87c63.627 0 115.21 51.587 115.21 115.21 0 63.64-51.573 115.23-115.21 115.23s-115.23-51.587-115.23-115.23c0-63.627 51.587-115.21 115.23-115.21zm-724.25 0c63.64 0 115.23 51.587 115.23 115.21 0 63.64-51.587 115.23-115.23 115.23s-115.23-51.587-115.23-115.23c0-63.627 51.587-115.21 115.23-115.21zm403.28 1016.9v133.23c0 22.72-18.427 41.147-41.16 41.147-22.72 0-41.147-18.427-41.147-41.147v-133.23c-44.933 28.907-91.4 49.36-137.85 61.893v182.57c0 43.08 19.6 82.467 51.16 111.21 32.613 29.693 77.853 48.12 127.84 48.12 50 0 95.24-18.427 127.84-48.12 31.573-28.747 51.173-68.133 51.173-111.21v-182.56c-46.467-12.533-92.933-33-137.85-61.907zm-329.29-250.36c13.067 0 23.653 10.587 23.653 23.653 0 13.067-10.587 23.667-23.653 23.667-13.067 0-23.667-10.6-23.667-23.667 0-13.067 10.6-23.653 23.667-23.653zm-86.453-39.133c0-13.067 10.587-23.667 23.667-23.667 13.067 0 23.653 10.6 23.653 23.667s-10.587 23.653-23.653 23.653c-13.08 0-23.667-10.587-23.667-23.653zm0 125.57c0-13.053 10.587-23.653 23.667-23.653 13.067 0 23.653 10.6 23.653 23.653 0 13.08-10.587 23.667-23.653 23.667-13.08 0-23.667-10.587-23.667-23.667zm788.32-86.44c13.067 0 23.653 10.587 23.653 23.653 0 13.067-10.587 23.667-23.653 23.667-13.067 0-23.667-10.6-23.667-23.667 0-13.067 10.6-23.653 23.667-23.653zm-86.453-39.133c0-13.067 10.587-23.667 23.653-23.667 13.067 0 23.667 10.6 23.667 23.667s-10.6 23.653-23.667 23.653c-13.067 0-23.653-10.587-23.653-23.653zm0 125.57c0-13.053 10.587-23.653 23.653-23.653 13.067 0 23.667 10.6 23.667 23.653 0 13.08-10.6 23.667-23.667 23.667-13.067 0-23.653-10.587-23.653-23.667zm-39.133-86.44c13.067 0 23.653 10.587 23.653 23.653 0 13.067-10.587 23.667-23.653 23.667s-23.667-10.6-23.667-23.667c0-13.067 10.6-23.653 23.667-23.653zm-701.87 0c13.067 0 23.667 10.587 23.667 23.653 0 13.067-10.6 23.667-23.667 23.667-13.067 0-23.653-10.6-23.653-23.667 0-13.067 10.587-23.653 23.653-23.653zm433.25-2.1066v133.71c2.76 1.4934 5.3867 3.32 7.8133 5.48 90.507 79.56 191.77 113.21 283.99 107.55 40.333-2.4667 79-12.507 114.24-29.507 35.053-16.92 66.84-40.907 93.64-71.36 58.96-67.027 93.533-165.69 85.867-290.43-1.32-22.64 15.947-42.08 38.587-43.413 22.64-1.32 42.067 15.947 43.4 38.587 9.0933 148.11-33.587 267.12-106.13 349.59-34.013 38.667-74.653 69.227-119.68 90.973-44.853 21.653-93.96 34.4-145.11 37.547-18.053 1.1066-36.373 1.0133-54.84-0.32v168.53c0 67.187-29.933 128.05-78.173 171.97-47.2 42.987-112.04 69.667-183.13 69.667-71.093 0-135.93-26.68-183.13-69.667-48.227-43.92-78.173-104.79-78.173-171.97v-168.53c-18.453 1.3333-36.773 1.4266-54.84 0.32-51.147-3.1334-100.24-15.907-145.09-37.547-45.027-21.747-85.667-52.307-119.69-90.973-72.539-82.467-115.22-201.48-106.13-349.59 1.332-22.64 20.767-39.907 43.403-38.587 22.637 1.3334 39.911 20.773 38.579 43.413-7.656 124.73 26.919 223.4 85.876 290.43 26.8 30.453 58.587 54.44 93.64 71.36 35.24 17 73.893 27.04 114.24 29.507 92.267 5.6667 193.6-28.027 284.16-107.69 2.3866-2.1067 4.9466-3.88 7.64-5.3334v-133.71c-76-59.107-130.15-104.27-159.23-129.08-33.707-28.747-48.413-57.813-47.307-87.093 0.9067-23.84 9.3067-48.227 50.84-69.453 49.76-25.453 118.68-17.933 175.21-19.853v0.08l0.013-0.08c56.52 1.92 125.45-5.6 175.21 19.853 41.533 21.227 49.933 45.613 50.84 69.453 1.1067 29.28-13.613 58.347-47.307 87.093-29.08 24.813-83.227 69.973-159.23 129.08zm-445.81-1265.3c-163.52 72.76-267.73 295.27-312.63 667.53-8.1027 128.31-61.064 252.08-120.61 253.51-35 0.8267-72.963-34.213-103.62-152.6-8.8813-34.307-18.603-69.307-35.039-101.4-42.183-82.387-171.15-229.59-182.43-261.63-20.865-59.253-6.4693-115.63 23.16-165.15 21.939-36.68 52.24-69.613 82.757-97.187 136.27-123.13 326.97-202.63 578.21-238.41 36.8-5.2267 124.37-5.0133 145.55 28 29.253 45.6-49.08 55.653-75.36 67.333"/>
</svg>